<?xml version="1.0" encoding="UTF-8"?>
<svg version="1.1" xmlns="http://www.w3.org/2000/svg" width="191" height="184">
<path d="M0 0 C63.03 0 126.06 0 191 0 C191 60.72 191 121.44 191 184 C127.97 184 64.94 184 0 184 C0 123.28 0 62.56 0 0 Z " fill="#FDFCFC" transform="translate(0,0)"/>
<path d="M0 0 C0.64340332 0.23025879 1.28680664 0.46051758 1.94970703 0.69775391 C10.43291719 3.75072672 10.43291719 3.75072672 14 6 C14.8828125 8.69140625 14.8828125 8.69140625 15 11 C10.21357668 13.83140534 5.40659445 13.40136291 0 13 C-3.3125 12.0625 -3.3125 12.0625 -6 11 C-7.99369031 10.63079809 -9.99279077 10.28674418 -12 10 C-12.495 8.515 -12.495 8.515 -13 7 C-21.95543648 4.16411178 -31.96616959 3.0768348 -40.5625 7.375 C-42.05124513 8.23360175 -43.53135468 9.10745312 -45 10 C-45.71027344 10.30164062 -46.42054687 10.60328125 -47.15234375 10.9140625 C-49.53126187 12.31224271 -49.92264756 13.4745463 -51 16 C-51.53496094 16.94230469 -52.06992187 17.88460937 -52.62109375 18.85546875 C-60.67216234 33.62441824 -61.65032904 48.42622968 -61 65 C-60.95746094 66.26199219 -60.91492188 67.52398437 -60.87109375 68.82421875 C-60.22251584 81.3679916 -56.88649962 92.47785601 -52 104 C-51.54625 105.06992188 -51.0925 106.13984375 -50.625 107.2421875 C-47.5556212 113.93143152 -44.21717243 118.90382456 -38 123 C-29.03993053 125.98668982 -21.13563044 123.02007091 -13 119 C-10.95550564 117.59635603 -8.93393605 116.15869567 -6.9375 114.6875 C-1.00910053 110.48788812 3.88255881 109.87558339 11 111 C11.66 111.33 12.32 111.66 13 112 C13.22192383 114.31640625 13.22192383 114.31640625 13 117 C11.5222168 118.58984375 11.5222168 118.58984375 9.44921875 119.9375 C8.69294189 120.43781738 7.93666504 120.93813477 7.1574707 121.45361328 C6.34238037 121.9639209 5.52729004 122.47422852 4.6875 123 C3.86531982 123.52964355 3.04313965 124.05928711 2.19604492 124.60498047 C-11.23988103 133.11875612 -24.94458035 138.86146184 -41.13671875 135.3125 C-53.46401805 131.18620735 -61.72656921 122.71345133 -67.6875 111.375 C-79.90175241 86.38688471 -82.77874157 54.71053162 -75.12109375 27.92578125 C-74.21602255 25.51352036 -73.19544011 23.2810949 -72 21 C-71.57976562 20.16339844 -71.15953125 19.32679687 -70.7265625 18.46484375 C-56.98705391 -6.69895237 -24.65911423 -9.43959025 0 0 Z " fill="#060606" transform="translate(98,16)"/>
<path d="M0 0 C3.08238235 2.77414411 4.98522814 4.94091256 6 9 C6.0507185 11.92476672 5.66943752 14.08316509 5 17 C2.9375 18.5 2.9375 18.5 1 19 C1 19.99 1 20.98 1 22 C2.32 22 3.64 22 5 22 C5.94137255 24.82411765 6.11725382 26.52918032 6.09765625 29.44921875 C6.09443359 30.29677734 6.09121094 31.14433594 6.08789062 32.01757812 C6.07532227 33.33918945 6.07532227 33.33918945 6.0625 34.6875 C6.05798828 35.58017578 6.05347656 36.47285156 6.04882812 37.39257812 C6.03704983 39.59511987 6.02060164 41.79752599 6 44 C6.5880542 43.98549805 7.1761084 43.97099609 7.78198242 43.95605469 C14.97115562 43.85306848 21.34379608 44.62346745 27.5 48.625 C31.15737569 54.41584484 31.35744977 61.32760425 31 68 C30.67 68.33 30.34 68.66 30 69 C29.76572222 71.01594582 29.58663876 73.038474 29.4375 75.0625 C29.31181641 76.71958984 29.31181641 76.71958984 29.18359375 78.41015625 C29.12300781 79.26480469 29.06242187 80.11945313 29 81 C29.66 81.33 30.32 81.66 31 82 C30.34 82 29.68 82 29 82 C28.95875 82.7425 28.9175 83.485 28.875 84.25 C27.63821998 88.13702293 25.47956741 89.05144225 22 91 C16.54665892 92.81778036 10.64322791 92.18469896 4.9375 92.1875 C3.00874023 92.20586914 3.00874023 92.20586914 1.04101562 92.22460938 C-17.09561051 92.25238369 -17.09561051 92.25238369 -23.0625 87.625 C-25 85 -25 85 -26 81 C-28.97 82.32 -31.94 83.64 -35 85 C-34.67453682 88.60398353 -34.67453682 88.60398353 -32.453125 91.2578125 C-13.45800882 98.73461355 14.29787019 100.81447195 33.40234375 92.5234375 C36.12608086 91.27314339 36.12608086 91.27314339 36.875 88.9375 C36.95954431 87.62706319 37 86.31316121 37 85 C35.35 84.34 33.7 83.68 32 83 C32.99 82.67 33.98 82.34 35 82 C37.0625 83.5625 37.0625 83.5625 39 86 C38.9375 89.625 38.9375 89.625 38 93 C35 95 35 95 32 95 C31.71125 95.639375 31.4225 96.27875 31.125 96.9375 C30 99 30 99 28 100 C27.34786708 102.02463255 27.34786708 102.02463255 27 104 C26.34 104 25.68 104 25 104 C25 103.01 25 102.02 25 101 C22.36 101.33 19.72 101.66 17 102 C17 102.66 17 103.32 17 104 C16.48050781 104.21914062 15.96101563 104.43828125 15.42578125 104.6640625 C10.25692108 107.01441297 7.1679545 109.24806825 4 114 C4 115.32 4 116.64 4 118 C6.97 119.32 9.94 120.64 13 122 C10 123 10 123 7.95703125 122.22265625 C7.24933594 121.83980469 6.54164062 121.45695312 5.8125 121.0625 C5.09707031 120.68222656 4.38164063 120.30195313 3.64453125 119.91015625 C3.10183594 119.60980469 2.55914062 119.30945313 2 119 C1.55412357 115.9531777 1.49395259 113.80763123 3.16015625 111.1484375 C6.04083546 107.68572848 8.87442474 104.94818832 13 103 C13.66 103 14.32 103 15 103 C15 102.34 15 101.68 15 101 C-1.335 101.495 -1.335 101.495 -18 102 C-18 101.67 -18 101.34 -18 101 C-18.94875 100.731875 -19.8975 100.46375 -20.875 100.1875 C-24 99 -24 99 -26 96 C-28.07807494 94.88360646 -28.07807494 94.88360646 -30.4375 94 C-36.11988047 91.75325978 -36.11988047 91.75325978 -38 89 C-37.99609375 86.48828125 -37.99609375 86.48828125 -37 84 C-34.78515625 82.41796875 -34.78515625 82.41796875 -32.0625 81.1875 C-31.16660156 80.76855469 -30.27070312 80.34960938 -29.34765625 79.91796875 C-27 79 -27 79 -25 79 C-25.05991406 77.04081032 -25.14867138 75.08248471 -25.25 73.125 C-25.29640625 72.03445312 -25.3428125 70.94390625 -25.390625 69.8203125 C-25.68846128 66.8667935 -25.68846128 66.8667935 -28.046875 65.6171875 C-28.69140625 65.41351563 -29.3359375 65.20984375 -30 65 C-30.08097324 62.72975032 -30.13917704 60.45867925 -30.1875 58.1875 C-30.22230469 56.92292969 -30.25710937 55.65835938 -30.29296875 54.35546875 C-30 51 -30 51 -28.76171875 49.1875 C-20.92831308 43.90733298 -13.22916855 43.47923187 -4 44 C-4.10828125 43.09121094 -4.10828125 43.09121094 -4.21875 42.1640625 C-6.00755668 26.01511335 -6.00755668 26.01511335 -4 22 C-3.01 22 -2.02 22 -1 22 C-1.04125 20.88625 -1.0825 19.7725 -1.125 18.625 C-1 15 -1 15 1 13 C1.495 14.98 1.495 14.98 2 17 C3.73465985 14.34699082 4.01580962 13.15493427 3.6875 9.9375 C3.03889786 6.96383182 3.03889786 6.96383182 2 4 C1.34 4 0.68 4 0 4 C0 2.68 0 1.36 0 0 Z " fill="#E5B3B6" transform="translate(119,25)"/>
<path d="M0 0 C3.08238235 2.77414411 4.98522814 4.94091256 6 9 C6.0507185 11.92476672 5.66943752 14.08316509 5 17 C2.9375 18.5 2.9375 18.5 1 19 C1 19.99 1 20.98 1 22 C2.32 22 3.64 22 5 22 C5.94137255 24.82411765 6.11725382 26.52918032 6.09765625 29.44921875 C6.09443359 30.29677734 6.09121094 31.14433594 6.08789062 32.01757812 C6.07532227 33.33918945 6.07532227 33.33918945 6.0625 34.6875 C6.05798828 35.58017578 6.05347656 36.47285156 6.04882812 37.39257812 C6.03704983 39.59511987 6.02060164 41.79752599 6 44 C6.5880542 43.98549805 7.1761084 43.97099609 7.78198242 43.95605469 C14.97115562 43.85306848 21.34379608 44.62346745 27.5 48.625 C31.15737569 54.41584484 31.35744977 61.32760425 31 68 C30.67 68.33 30.34 68.66 30 69 C29.76572222 71.01594582 29.58663876 73.038474 29.4375 75.0625 C29.31181641 76.71958984 29.31181641 76.71958984 29.18359375 78.41015625 C29.12300781 79.26480469 29.06242187 80.11945313 29 81 C29.66 81.33 30.32 81.66 31 82 C30.34 82 29.68 82 29 82 C28.95875 82.7425 28.9175 83.485 28.875 84.25 C27.63821998 88.13702293 25.47956741 89.05144225 22 91 C16.54665892 92.81778036 10.64322791 92.18469896 4.9375 92.1875 C3.00874023 92.20586914 3.00874023 92.20586914 1.04101562 92.22460938 C-17.09561051 92.25238369 -17.09561051 92.25238369 -23.0625 87.625 C-25 85 -25 85 -26 81 C-28.97 82.32 -31.94 83.64 -35 85 C-34.67453682 88.60398353 -34.67453682 88.60398353 -32.453125 91.2578125 C-13.45800882 98.73461355 14.29787019 100.81447195 33.40234375 92.5234375 C36.12608086 91.27314339 36.12608086 91.27314339 36.875 88.9375 C36.95954431 87.62706319 37 86.31316121 37 85 C35.35 84.34 33.7 83.68 32 83 C32.99 82.67 33.98 82.34 35 82 C37.0625 83.5625 37.0625 83.5625 39 86 C38.9375 89.625 38.9375 89.625 38 93 C35 95 35 95 32 95 C31.71125 95.639375 31.4225 96.27875 31.125 96.9375 C30 99 30 99 28 100 C27.34786708 102.02463255 27.34786708 102.02463255 27 104 C26.34 104 25.68 104 25 104 C25 103.01 25 102.02 25 101 C22.36 101.33 19.72 101.66 17 102 C17 102.66 17 103.32 17 104 C16.48050781 104.21914062 15.96101563 104.43828125 15.42578125 104.6640625 C10.25692108 107.01441297 7.1679545 109.24806825 4 114 C4 115.32 4 116.64 4 118 C6.97 119.32 9.94 120.64 13 122 C10 123 10 123 7.95703125 122.22265625 C7.24933594 121.83980469 6.54164062 121.45695312 5.8125 121.0625 C5.09707031 120.68222656 4.38164063 120.30195313 3.64453125 119.91015625 C3.10183594 119.60980469 2.55914062 119.30945313 2 119 C1.55412357 115.9531777 1.49395259 113.80763123 3.16015625 111.1484375 C6.04083546 107.68572848 8.87442474 104.94818832 13 103 C13.66 103 14.32 103 15 103 C15 102.34 15 101.68 15 101 C-1.335 101.495 -1.335 101.495 -18 102 C-18 101.67 -18 101.34 -18 101 C-18.94875 100.731875 -19.8975 100.46375 -20.875 100.1875 C-24 99 -24 99 -26 96 C-28.07807494 94.88360646 -28.07807494 94.88360646 -30.4375 94 C-36.11988047 91.75325978 -36.11988047 91.75325978 -38 89 C-37.99609375 86.48828125 -37.99609375 86.48828125 -37 84 C-34.78515625 82.41796875 -34.78515625 82.41796875 -32.0625 81.1875 C-31.16660156 80.76855469 -30.27070312 80.34960938 -29.34765625 79.91796875 C-27 79 -27 79 -25 79 C-25.05991406 77.04081032 -25.14867138 75.08248471 -25.25 73.125 C-25.29640625 72.03445312 -25.3428125 70.94390625 -25.390625 69.8203125 C-25.68846128 66.8667935 -25.68846128 66.8667935 -28.046875 65.6171875 C-28.69140625 65.41351563 -29.3359375 65.20984375 -30 65 C-30.08097324 62.72975032 -30.13917704 60.45867925 -30.1875 58.1875 C-30.22230469 56.92292969 -30.25710937 55.65835938 -30.29296875 54.35546875 C-30 51 -30 51 -28.76171875 49.1875 C-20.92831308 43.90733298 -13.22916855 43.47923187 -4 44 C-4.10828125 43.09121094 -4.10828125 43.09121094 -4.21875 42.1640625 C-6.00755668 26.01511335 -6.00755668 26.01511335 -4 22 C-3.01 22 -2.02 22 -1 22 C-1.04125 20.88625 -1.0825 19.7725 -1.125 18.625 C-1 15 -1 15 1 13 C1.495 14.98 1.495 14.98 2 17 C3.73465985 14.34699082 4.01580962 13.15493427 3.6875 9.9375 C3.03889786 6.96383182 3.03889786 6.96383182 2 4 C1.34 4 0.68 4 0 4 C0 2.68 0 1.36 0 0 Z M-28 55 C-28 58.3 -28 61.6 -28 65 C-26.35 65 -24.7 65 -23 65 C-23.33 65.33 -23.66 65.66 -24 66 C-24.12774845 68.40939516 -24.18521564 70.77749676 -24.1875 73.1875 C-24.20167969 74.50105469 -24.21585938 75.81460938 -24.23046875 77.16796875 C-24.00566169 80.90586233 -23.61225312 83.62481589 -22 87 C-20.08013272 88.31761339 -20.08013272 88.31761339 -17.75 88.8125 C-17.00234375 89.02519531 -16.2546875 89.23789063 -15.484375 89.45703125 C-1.42343435 92.53009847 15.0942142 92.25337835 28 85 C28.20589721 77.43592467 28.20589721 77.43592467 27 70 C25.68 69.67 24.36 69.34 23 69 C23.33 68.01 23.66 67.02 24 66 C24.66 66.99 25.32 67.98 26 69 C26.99 68.67 27.98 68.34 29 68 C29.02696365 66.20841511 29.04637917 64.41671527 29.0625 62.625 C29.07410156 61.62726563 29.08570313 60.62953125 29.09765625 59.6015625 C29.18006602 57.01567547 29.18006602 57.01567547 28 55 C26.88818359 55.32484375 26.88818359 55.32484375 25.75390625 55.65625 C16.51914481 58.09775364 5.43857534 59.89214246 -4.01171875 57.48828125 C-7.21811438 56.700856 -10.46914229 56.897187 -13.75 56.9375 C-14.44738281 56.94201172 -15.14476562 56.94652344 -15.86328125 56.95117188 C-17.57555803 56.9628998 -19.28779033 56.98083347 -21 57 C-21 57.66 -21 58.32 -21 59 C-21.99 59 -22.98 59 -24 59 C-24.66 57.68 -25.32 56.36 -26 55 C-26.66 55 -27.32 55 -28 55 Z " fill="#F5C2C5" transform="translate(119,25)"/>
<path d="M0 0 C6.94465545 -0.45291231 13.59599432 0.78739631 19.5 4.625 C23.15737569 10.41584484 23.35744977 17.32760425 23 24 C22.505 24.495 22.505 24.495 22 25 C21.76572222 27.01594582 21.58663876 29.038474 21.4375 31.0625 C21.35371094 32.16722656 21.26992187 33.27195313 21.18359375 34.41015625 C21.12300781 35.26480469 21.06242187 36.11945313 21 37 C21.66 37.33 22.32 37.66 23 38 C22.34 38 21.68 38 21 38 C20.95875 38.7425 20.9175 39.485 20.875 40.25 C19.63821998 44.13702293 17.47956741 45.05144225 14 47 C8.54665892 48.81778036 2.64322791 48.18469896 -3.0625 48.1875 C-4.34833984 48.19974609 -5.63417969 48.21199219 -6.95898438 48.22460938 C-25.09561051 48.25238369 -25.09561051 48.25238369 -31.0625 43.625 C-33 41 -33 41 -34 37 C-36.97 38.32 -39.94 39.64 -43 41 C-42.67453682 44.60398353 -42.67453682 44.60398353 -40.453125 47.2578125 C-21.45800882 54.73461355 6.29787019 56.81447195 25.40234375 48.5234375 C28.12608086 47.27314339 28.12608086 47.27314339 28.875 44.9375 C28.95954431 43.62706319 29 42.31316121 29 41 C27.35 40.34 25.7 39.68 24 39 C24.99 38.67 25.98 38.34 27 38 C29.0625 39.5625 29.0625 39.5625 31 42 C30.9375 45.625 30.9375 45.625 30 49 C27 51 27 51 24 51 C23.71125 51.639375 23.4225 52.27875 23.125 52.9375 C22 55 22 55 20 56 C19.34786708 58.02463255 19.34786708 58.02463255 19 60 C18.34 60 17.68 60 17 60 C17 59.01 17 58.02 17 57 C14.36 57.33 11.72 57.66 9 58 C9 58.66 9 59.32 9 60 C8.48050781 60.21914062 7.96101563 60.43828125 7.42578125 60.6640625 C2.25692108 63.01441297 -0.8320455 65.24806825 -4 70 C-4 71.32 -4 72.64 -4 74 C-1.03 75.32 1.94 76.64 5 78 C2 79 2 79 -0.04296875 78.22265625 C-0.75066406 77.83980469 -1.45835938 77.45695312 -2.1875 77.0625 C-2.90292969 76.68222656 -3.61835937 76.30195313 -4.35546875 75.91015625 C-4.89816406 75.60980469 -5.44085938 75.30945313 -6 75 C-6.44587643 71.9531777 -6.50604741 69.80763123 -4.83984375 67.1484375 C-1.95916454 63.68572848 0.87442474 60.94818832 5 59 C5.66 59 6.32 59 7 59 C7 58.34 7 57.68 7 57 C-9.335 57.495 -9.335 57.495 -26 58 C-26 57.67 -26 57.34 -26 57 C-26.94875 56.731875 -27.8975 56.46375 -28.875 56.1875 C-32 55 -32 55 -34 52 C-36.07807494 50.88360646 -36.07807494 50.88360646 -38.4375 50 C-44.11988047 47.75325978 -44.11988047 47.75325978 -46 45 C-45.99609375 42.48828125 -45.99609375 42.48828125 -45 40 C-42.78515625 38.41796875 -42.78515625 38.41796875 -40.0625 37.1875 C-39.16660156 36.76855469 -38.27070312 36.34960938 -37.34765625 35.91796875 C-35 35 -35 35 -33 35 C-33.05991406 33.04081032 -33.14867138 31.08248471 -33.25 29.125 C-33.29640625 28.03445312 -33.3428125 26.94390625 -33.390625 25.8203125 C-33.68846128 22.8667935 -33.68846128 22.8667935 -36.046875 21.6171875 C-36.69140625 21.41351563 -37.3359375 21.20984375 -38 21 C-38.08097324 18.72975032 -38.13917704 16.45867925 -38.1875 14.1875 C-38.22230469 12.92292969 -38.25710937 11.65835938 -38.29296875 10.35546875 C-38 7 -38 7 -36.64453125 5.12890625 C-34.49548363 3.65366929 -32.49769838 2.74930951 -30 2 C-29.01 2.33 -28.02 2.66 -27 3 C-28.134375 3.4125 -29.26875 3.825 -30.4375 4.25 C-34.09543384 5.56685398 -34.09543384 5.56685398 -34.9375 8.1875 C-34.958125 8.785625 -34.97875 9.38375 -35 10 C-34.01 10.33 -33.02 10.66 -32 11 C-32.33 11.66 -32.66 12.32 -33 13 C-33.99 12.34 -34.98 11.68 -36 11 C-36 14.3 -36 17.6 -36 21 C-34.02 20.67 -32.04 20.34 -30 20 C-30.33 20.66 -30.66 21.32 -31 22 C-31.09855117 24.44928655 -31.13900583 26.86381376 -31.125 29.3125 C-31.12757812 30.62863281 -31.13015625 31.94476563 -31.1328125 33.30078125 C-31.02300644 36.35920294 -30.72160244 39.0391392 -30 42 C-28.62708132 42.48509793 -27.25153297 42.96275513 -25.875 43.4375 C-25.10929687 43.70433594 -24.34359375 43.97117188 -23.5546875 44.24609375 C-10.00564669 48.24451099 2.84187101 45.80531256 16 42 C17.98 41.505 17.98 41.505 20 41 C19.505 33.575 19.505 33.575 19 26 C17.68 25.67 16.36 25.34 15 25 C14.505 26.485 14.505 26.485 14 28 C14 26.02 14 24.04 14 22 C14.99 22 15.98 22 17 22 C17.495 22.99 17.495 22.99 18 24 C18.66 24 19.32 24 20 24 C20 19.71 20 15.42 20 11 C17.89625 11.7115625 17.89625 11.7115625 15.75 12.4375 C9.82813752 14.4404829 4.77675462 15.15696989 -1.5 15.125 C-2.63888672 15.13080078 -2.63888672 15.13080078 -3.80078125 15.13671875 C-7.38667796 15.13043872 -10.54576306 14.89164938 -14 14 C-16.58656673 13.77711499 -19.15952778 13.58685615 -21.75 13.4375 C-22.44738281 13.39431641 -23.14476563 13.35113281 -23.86328125 13.30664062 C-25.57531922 13.20110404 -27.28763561 13.1001009 -29 13 C-29 12.67 -29 12.34 -29 12 C-26.41659616 11.97296438 -23.83347692 11.95314389 -21.25 11.9375 C-20.52039063 11.92912109 -19.79078125 11.92074219 -19.0390625 11.91210938 C-15.49728543 11.89601039 -12.41055936 12.11748215 -9 13 C0.82676133 13.62088893 9.49104238 12.6939374 19 10 C17.88414885 7.34048125 16.96216314 5.43363206 14.25244141 4.21240234 C12.11647594 3.61123183 9.98756684 3.12631261 7.8125 2.6875 C7.06291016 2.51927734 6.31332031 2.35105469 5.54101562 2.17773438 C3.69799211 1.76686926 1.84943764 1.38095436 0 1 C0 0.67 0 0.34 0 0 Z " fill="#535252" transform="translate(127,69)"/>
<path d="M0 0 C0.20625 1.093125 0.4125 2.18625 0.625 3.3125 C1.65288003 7.13643178 1.65288003 7.13643178 4.6875 8.875 C12.68587445 11.59142906 21.08637494 11.24983523 29.4375 11.3125 C30.72205078 11.34150391 32.00660156 11.37050781 33.33007812 11.40039062 C40.67518229 11.44958504 45.84261246 11.17064427 52 7 C53.34689915 4.42900598 53.34689915 4.42900598 54 2 C54.99 1.67 55.98 1.34 57 1 C57 1.66 57 2.32 57 3 C57.804375 3.226875 58.60875 3.45375 59.4375 3.6875 C62 5 62 5 63 7.4375 C63 10 63 10 61.88671875 11.52734375 C59.34994301 13.50739438 56.89194525 14.20802568 53.8125 15.125 C52.72582031 15.45757812 51.63914063 15.79015625 50.51953125 16.1328125 C33.28271031 20.37984274 6.73686106 20.23279022 -9 11 C-11 9 -11 9 -11.1875 6.625 C-9.46450322 2.81627028 -6.7911607 2.20437287 -3.03125 0.69921875 C-1 0 -1 0 0 0 Z " fill="#F0BEC1" transform="translate(94,105)"/>
<path d="M0 0 C1.98 0.99 1.98 0.99 4 2 C4 2.66 4 3.32 4 4 C4.99 4 5.98 4 7 4 C7 3.34 7 2.68 7 2 C9.41674224 1.97294692 11.8331794 1.95313562 14.25 1.9375 C14.93191406 1.92912109 15.61382812 1.92074219 16.31640625 1.91210938 C19.74524751 1.89546451 22.69864434 2.16023769 26 3 C36.48145688 3.58292594 45.87729455 2.95759046 56 0 C57.32229189 2.64458379 57.09677194 4.67761301 57.0625 7.625 C57.05347656 8.62789062 57.04445312 9.63078125 57.03515625 10.6640625 C57.02355469 11.43492188 57.01195312 12.20578125 57 13 C55.68 13 54.36 13 53 13 C51.25 11 51.25 11 50 9 C49.67 10.65 49.34 12.3 49 14 C47.0625 13.625 47.0625 13.625 45 13 C44.505 12.01 44.505 12.01 44 11 C39.11212973 11.41896031 37.3285869 13.58381871 34 17 C33.01 17 32.02 17 31 17 C29.515 12.545 29.515 12.545 28 8 C25.525 7.505 25.525 7.505 23 7 C22.80664062 7.54269531 22.61328125 8.08539063 22.4140625 8.64453125 C22.15367188 9.35996094 21.89328125 10.07539062 21.625 10.8125 C21.24214844 11.87404297 21.24214844 11.87404297 20.8515625 12.95703125 C20 15 20 15 18 18 C16.140625 17.78515625 16.140625 17.78515625 14 17 C12.734375 14.93359375 12.734375 14.93359375 11.75 12.4375 C11.41484375 11.61121094 11.0796875 10.78492187 10.734375 9.93359375 C10.49203125 9.29550781 10.2496875 8.65742187 10 8 C9.40703125 8.15339844 8.8140625 8.30679688 8.203125 8.46484375 C5.48898993 9.12412833 2.75741895 9.56131971 0 10 C0 6.7 0 3.4 0 0 Z " fill="#FDF9F9" transform="translate(91,80)"/>
<path d="M0 0 C0.66 0.99 1.32 1.98 2 3 C3.32 2.67 4.64 2.34 6 2 C6.33663062 5.70293685 6.47736015 7.39534381 4.125 10.375 C2 12 2 12 0 12 C-0.19335938 13.25296875 -0.38671875 14.5059375 -0.5859375 15.796875 C-0.84861199 17.4479718 -1.11165198 19.09901049 -1.375 20.75 C-1.56449219 21.9875 -1.56449219 21.9875 -1.7578125 23.25 C-1.88671875 24.04921875 -2.015625 24.8484375 -2.1484375 25.671875 C-2.26364746 26.4050293 -2.37885742 27.13818359 -2.49755859 27.89355469 C-3.03598837 30.15087834 -3.8887698 31.97009934 -5 34 C-5.26404456 27.13484138 -4.25841946 20.74153283 -3 14 C-3.61875 13.87625 -4.2375 13.7525 -4.875 13.625 C-7 13 -7 13 -9 11 C-12.74667202 12.6327851 -12.74667202 12.6327851 -16 15 C-17.66617115 15.04063832 -19.33388095 15.042721 -21 15 C-21.33 13.35 -21.66 11.7 -22 10 C-25.95082689 12.17976656 -26.69357889 14.72071295 -28.0859375 18.8671875 C-30.13312406 23.64395613 -33.73657692 27.15771795 -38 30 C-41.1875 30.125 -41.1875 30.125 -44 30 C-43.52563357 25.44125824 -41.98544422 23.54112999 -38.6875 20.4375 C-37.90761719 19.69371094 -37.12773437 18.94992188 -36.32421875 18.18359375 C-35.55722656 17.46300781 -34.79023438 16.74242187 -34 16 C-32.66211608 14.67123284 -31.32724515 13.33939385 -30 12 C-31.65 10.68 -33.3 9.36 -35 8 C-33.68 8 -32.36 8 -31 8 C-31 8.66 -31 9.32 -31 10 C-28.29228028 10.41026056 -26.53852868 10.32935767 -24.1796875 8.88671875 C-22.95425768 7.9766192 -21.74374694 7.04600643 -20.55078125 6.09375 C-19 5 -19 5 -17 5 C-17.33 5.99 -17.66 6.98 -18 8 C-18.33 8 -18.66 8 -19 8 C-19.33 9.98 -19.66 11.96 -20 14 C-15.05848696 11.59983652 -12.95668756 8.47726973 -10 4 C-8.68 4.33 -7.36 4.66 -6 5 C-6.99 5.33 -7.98 5.66 -9 6 C-9 6.33 -9 6.66 -9 7 C-8.34 6.67 -7.68 6.34 -7 6 C-6.505 8.97 -6.505 8.97 -6 12 C-5.01 12 -4.02 12 -3 12 C-1.515 6.06 -1.515 6.06 0 0 Z " fill="#2F2F2F" transform="translate(167,140)"/>
<path d="M0 0 C3.08238235 2.77414411 4.98522814 4.94091256 6 9 C6.0507185 11.92476672 5.66943752 14.08316509 5 17 C2.9375 18.5 2.9375 18.5 1 19 C1 19.99 1 20.98 1 22 C1.99 22.33 2.98 22.66 4 23 C4 32.24 4 41.48 4 51 C4.99 51.33 5.98 51.66 7 52 C4.11788698 52.96070434 2.30149956 53.10581883 -0.6875 53.0625 C-1.89986328 53.04896484 -1.89986328 53.04896484 -3.13671875 53.03515625 C-3.75160156 53.02355469 -4.36648437 53.01195312 -5 53 C-5.02469575 48.90658501 -5.04285793 44.81319879 -5.05493164 40.71972656 C-5.0599643 39.32681523 -5.06679098 37.9339092 -5.07543945 36.54101562 C-5.08755152 34.54038754 -5.09270412 32.53972112 -5.09765625 30.5390625 C-5.10289307 29.33459473 -5.10812988 28.13012695 -5.11352539 26.88916016 C-5 24 -5 24 -4 22 C-3.01 22 -2.02 22 -1 22 C-1.04125 20.88625 -1.0825 19.7725 -1.125 18.625 C-1 15 -1 15 1 13 C1.33 14.32 1.66 15.64 2 17 C3.73465985 14.34699082 4.01580962 13.15493427 3.6875 9.9375 C3.03889786 6.96383182 3.03889786 6.96383182 2 4 C1.34 4 0.68 4 0 4 C0 2.68 0 1.36 0 0 Z " fill="#736161" transform="translate(119,25)"/>
<path d="M0 0 C2.375 0.3125 2.375 0.3125 5 1 C7 4 7 4 6.8125 7.5625 C6 11 6 11 3 13 C2.01 13 1.02 13 0 13 C-0.28875 13.639375 -0.5775 14.27875 -0.875 14.9375 C-2 17 -2 17 -4 18 C-4.65213292 20.02463255 -4.65213292 20.02463255 -5 22 C-5.66 22 -6.32 22 -7 22 C-7 21.01 -7 20.02 -7 19 C-10.96 19.495 -10.96 19.495 -15 20 C-15 20.66 -15 21.32 -15 22 C-15.51949219 22.21914062 -16.03898437 22.43828125 -16.57421875 22.6640625 C-21.74307892 25.01441297 -24.8320455 27.24806825 -28 32 C-28 33.32 -28 34.64 -28 36 C-23.545 37.98 -23.545 37.98 -19 40 C-22 41 -22 41 -24.04296875 40.22265625 C-25.10451172 39.64837891 -25.10451172 39.64837891 -26.1875 39.0625 C-26.90292969 38.68222656 -27.61835937 38.30195313 -28.35546875 37.91015625 C-28.89816406 37.60980469 -29.44085938 37.30945313 -30 37 C-30.44587643 33.9531777 -30.50604741 31.80763123 -28.83984375 29.1484375 C-25.95916454 25.68572848 -23.12557526 22.94818832 -19 21 C-18.34 21 -17.68 21 -17 21 C-17 20.34 -17 19.68 -17 19 C-33.335 19.495 -33.335 19.495 -50 20 C-50 19.67 -50 19.34 -50 19 C-51.98 18.34 -53.96 17.68 -56 17 C-56 16.01 -56 15.02 -56 14 C-55.44054687 14.144375 -54.88109375 14.28875 -54.3046875 14.4375 C-37.05875857 18.43012663 -13.33028521 17.20785003 3 10 C5.28728734 8.16116119 5.28728734 8.16116119 5.125 5.375 C5.08375 4.59125 5.0425 3.8075 5 3 C2.525 2.01 2.525 2.01 0 1 C0 0.67 0 0.34 0 0 Z " fill="#7B6566" transform="translate(151,107)"/>
<path d="M0 0 C6.94465545 -0.45291231 13.59599432 0.78739631 19.5 4.625 C23.15737569 10.41584484 23.35744977 17.32760425 23 24 C22.505 24.495 22.505 24.495 22 25 C21.76572222 27.01594582 21.58663876 29.038474 21.4375 31.0625 C21.35371094 32.16722656 21.26992187 33.27195313 21.18359375 34.41015625 C21.09271484 35.69212891 21.09271484 35.69212891 21 37 C21.99 37.495 21.99 37.495 23 38 C22.34 38 21.68 38 21 38 C20.95875 38.7425 20.9175 39.485 20.875 40.25 C19.63188102 44.15694537 17.51909055 45.06795028 14 47 C11.8125 47.875 11.8125 47.875 10 48 C9.01 47.34 8.02 46.68 7 46 C7.495 45.01 7.495 45.01 8 44 C11.94854928 42.76501615 15.9664667 41.9340814 20 41 C19.505 33.575 19.505 33.575 19 26 C17.68 25.67 16.36 25.34 15 25 C14.505 26.485 14.505 26.485 14 28 C14 26.02 14 24.04 14 22 C14.99 22 15.98 22 17 22 C17.495 22.99 17.495 22.99 18 24 C18.66 24 19.32 24 20 24 C20 19.71 20 15.42 20 11 C17.89625 11.7115625 17.89625 11.7115625 15.75 12.4375 C9.82813752 14.4404829 4.77675462 15.15696989 -1.5 15.125 C-2.25925781 15.12886719 -3.01851562 15.13273437 -3.80078125 15.13671875 C-7.38667796 15.13043872 -10.54576306 14.89164938 -14 14 C-16.58656673 13.77711499 -19.15952778 13.58685615 -21.75 13.4375 C-22.44738281 13.39431641 -23.14476563 13.35113281 -23.86328125 13.30664062 C-25.57531922 13.20110404 -27.28763561 13.1001009 -29 13 C-29 12.67 -29 12.34 -29 12 C-26.41659616 11.97296438 -23.83347692 11.95314389 -21.25 11.9375 C-20.52039063 11.92912109 -19.79078125 11.92074219 -19.0390625 11.91210938 C-15.49728543 11.89601039 -12.41055936 12.11748215 -9 13 C0.82676133 13.62088893 9.49104238 12.6939374 19 10 C17.88414885 7.34048125 16.96216314 5.43363206 14.25244141 4.21240234 C12.11647594 3.61123183 9.98756684 3.12631261 7.8125 2.6875 C7.06291016 2.51927734 6.31332031 2.35105469 5.54101562 2.17773438 C3.69799211 1.76686926 1.84943764 1.38095436 0 1 C0 0.67 0 0.34 0 0 Z " fill="#817273" transform="translate(127,69)"/>
<path d="M0 0 C1.32 0 2.64 0 4 0 C4 0.66 4 1.32 4 2 C7.49234244 2.09978121 10.59437148 1.77842938 14 1 C13.67 2.32 13.34 3.64 13 5 C13 4.01 13 3.02 13 2 C9.04917311 4.17976656 8.30642111 6.72071295 6.9140625 10.8671875 C4.86687594 15.64395613 1.26342308 19.15771795 -3 22 C-6.1875 22.125 -6.1875 22.125 -9 22 C-8.52563357 17.44125824 -6.98544422 15.54112999 -3.6875 12.4375 C-2.90761719 11.69371094 -2.12773437 10.94992188 -1.32421875 10.18359375 C-0.17373047 9.10271484 -0.17373047 9.10271484 1 8 C2.33788392 6.67123284 3.67275485 5.33939385 5 4 C3.35 2.68 1.7 1.36 0 0 Z " fill="#3D3D3D" transform="translate(132,148)"/>
<path d="M0 0 C-0.020625 0.67546875 -0.04125 1.3509375 -0.0625 2.046875 C0.00331434 4.89334527 0.17386744 7.26905403 1 10 C3.43896134 12.05223386 5.9687586 13.07474636 9 14 C9 14.33 9 14.66 9 15 C2.20024147 15.50368582 -2.91933012 14.09684674 -9 11 C-11 9 -11 9 -11.1875 6.625 C-9.46450322 2.81627028 -6.7911607 2.20437287 -3.03125 0.69921875 C-1 0 -1 0 0 0 Z " fill="#F5F5F5" transform="translate(94,105)"/>
<path d="M0 0 C2.375 0.125 2.375 0.125 5 1 C7.68448204 4.33246046 8.36325349 6.76204266 8 11 C10.77926488 9.45596395 12.87435669 8.14134872 15 5.75 C17 4 17 4 19.6875 4.125 C22 5 22 5 23 7 C23.99 7.33 24.98 7.66 26 8 C26 6.35 26 4.7 26 3 C26.99 3 27.98 3 29 3 C28.01 5.97 27.02 8.94 26 12 C24.68 12 23.36 12 22 12 C21.34 10.35 20.68 8.7 20 7 C19.01 7 18.02 7 17 7 C15.35 9.97 13.7 12.94 12 16 C10.35 15.67 8.7 15.34 7 15 C5.86235649 10.73383684 5 7.43513689 5 3 C2.69 3.66 0.38 4.32 -2 5 C-1.125 1.125 -1.125 1.125 0 0 Z " fill="#F4C3C7" transform="translate(114,86)"/>
<path d="M0 0 C1.00933594 0.20496094 2.01867187 0.40992187 3.05859375 0.62109375 C16.33141938 3.14977164 29.5119134 3.70336043 43 4 C42.60449219 5.93408203 42.60449219 5.93408203 42 8 C40.328125 9.0546875 40.328125 9.0546875 38.25 9.875 C33.84836288 11.88581984 31.68696703 13.96954946 29 18 C29 19.32 29 20.64 29 22 C33.455 23.98 33.455 23.98 38 26 C35 27 35 27 32.95703125 26.22265625 C31.89548828 25.64837891 31.89548828 25.64837891 30.8125 25.0625 C30.09707031 24.68222656 29.38164063 24.30195313 28.64453125 23.91015625 C28.10183594 23.60980469 27.55914062 23.30945313 27 23 C26.55412357 19.9531777 26.49395259 17.80763123 28.16015625 15.1484375 C31.04083546 11.68572848 33.87442474 8.94818832 38 7 C38.66 7 39.32 7 40 7 C40 6.34 40 5.68 40 5 C23.665 5.495 23.665 5.495 7 6 C7 5.67 7 5.34 7 5 C5.5459375 4.5978125 5.5459375 4.5978125 4.0625 4.1875 C3.051875 3.795625 2.04125 3.40375 1 3 C0.67 2.01 0.34 1.02 0 0 Z " fill="#8E8A8A" transform="translate(94,121)"/>
<path d="M0 0 C0.99 0.33 1.98 0.66 3 1 C3.33 2.65 3.66 4.3 4 6 C4.62648438 5.90460937 5.25296875 5.80921875 5.8984375 5.7109375 C6.71570313 5.60007812 7.53296875 5.48921875 8.375 5.375 C9.59316406 5.20097656 9.59316406 5.20097656 10.8359375 5.0234375 C11.55007812 5.01570313 12.26421875 5.00796875 13 5 C15 7 15 7 15.125 10.125 C15.08375 11.07375 15.0425 12.0225 15 13 C16.98 13 18.96 13 21 13 C21 13.33 21 13.66 21 14 C20.05125 14.103125 19.1025 14.20625 18.125 14.3125 C14.70892499 14.68539295 14.70892499 14.68539295 13 18 C12.01 17.67 11.02 17.34 10 17 C10.33 14.69 10.66 12.38 11 10 C9.948125 10.04125 8.89625 10.0825 7.8125 10.125 C4.25989827 10.00852125 2.15133359 9.52791932 -1 8 C-0.835 7.236875 -0.67 6.47375 -0.5 5.6875 C0.09145396 2.96403764 0.09145396 2.96403764 0 0 Z " fill="#EFD7D9" transform="translate(58,32)"/>
<path d="M0 0 C3.08238235 2.77414411 4.98522814 4.94091256 6 9 C6.0507185 11.92476672 5.66943752 14.08316509 5 17 C2.9375 18.5 2.9375 18.5 1 19 C1 19.99 1 20.98 1 22 C1.66 22.33 2.32 22.66 3 23 C1.02 23 -0.96 23 -3 23 C-2.91621094 23.95519531 -2.83242187 24.91039063 -2.74609375 25.89453125 C-2.12729681 33.7509025 -1.93955467 41.15270455 -3 49 C-3.33 49 -3.66 49 -4 49 C-4.19622046 44.87536584 -4.38050216 40.75028427 -4.5625 36.625 C-4.61857422 35.449375 -4.67464844 34.27375 -4.73242188 33.0625 C-4.78076172 31.94101562 -4.82910156 30.81953125 -4.87890625 29.6640625 C-4.9260376 28.62717285 -4.97316895 27.5902832 -5.02172852 26.52197266 C-5 24 -5 24 -4 22 C-3.01 22 -2.02 22 -1 22 C-1.04125 20.88625 -1.0825 19.7725 -1.125 18.625 C-1 15 -1 15 1 13 C1.33 14.32 1.66 15.64 2 17 C3.73465985 14.34699082 4.01580962 13.15493427 3.6875 9.9375 C3.03889786 6.96383182 3.03889786 6.96383182 2 4 C1.34 4 0.68 4 0 4 C0 2.68 0 1.36 0 0 Z " fill="#4A4444" transform="translate(119,25)"/>
<path d="M0 0 C0.99 0 1.98 0 3 0 C4.9738064 3.31599474 6.02511183 5.34709242 5.875 9.25 C5 12 5 12 2 14 C1.67 13.01 1.34 12.02 1 11 C0.67 12.65 0.34 14.3 0 16 C-1.5 15 -1.5 15 -3 13 C-3.42764153 8.58103757 -3.46313317 6.05859011 -1.6875 2 C-1.130625 1.34 -0.57375 0.68 0 0 Z " fill="#D8CECF" transform="translate(118,29)"/>
<path d="M0 0 C-0.33 0.66 -0.66 1.32 -1 2 C-2.32 2 -3.64 2 -5 2 C-4.34 2.66 -3.68 3.32 -3 4 C-3.99 4.66 -4.98 5.32 -6 6 C-6.25030977 8.58380177 -6.25030977 8.58380177 -6 11 C-6.99 11.495 -6.99 11.495 -8 12 C-8.99 11.34 -9.98 10.68 -11 10 C-12.32 13.3 -13.64 16.6 -15 20 C-15.66 20 -16.32 20 -17 20 C-17.3125 16.8125 -17.3125 16.8125 -17 13 C-14.6875 10.375 -14.6875 10.375 -12 8 C-10.97695052 6.34738161 -9.97383946 4.68208635 -9 3 C-6.43920273 -0.53633908 -4.20621182 -0.28041412 0 0 Z " fill="#A49496" transform="translate(156,35)"/>
<path d="M0 0 C1.18851563 0.00902344 2.37703125 0.01804687 3.6015625 0.02734375 C4.51679687 0.03894531 5.43203125 0.05054687 6.375 0.0625 C6.375 1.0525 6.375 2.0425 6.375 3.0625 C5.67375 3.08828125 4.9725 3.1140625 4.25 3.140625 C-2.03964254 3.51663624 -7.42638209 4.2840559 -12.625 8.0625 C-13.615 9.5475 -13.615 9.5475 -14.625 11.0625 C-15.285 10.7325 -15.945 10.4025 -16.625 10.0625 C-16.295 8.4125 -15.965 6.7625 -15.625 5.0625 C-13.315 4.4025 -11.005 3.7425 -8.625 3.0625 C-8.625 2.4025 -8.625 1.7425 -8.625 1.0625 C-5.74084117 -0.37957941 -3.20778472 -0.03144887 0 0 Z " fill="#DFDDDE" transform="translate(108.625,68.9375)"/>
<path d="M0 0 C1.32229189 2.64458379 1.09677194 4.67761301 1.0625 7.625 C1.05347656 8.62789062 1.04445312 9.63078125 1.03515625 10.6640625 C1.02355469 11.43492188 1.01195312 12.20578125 1 13 C-0.32 13 -1.64 13 -3 13 C-4.06546953 9.8035914 -4.07427838 7.34252724 -4 4 C-6.97 4 -9.94 4 -13 4 C-8.9083869 1.95419345 -4.65704046 0 0 0 Z " fill="#EFBCC0" transform="translate(147,80)"/>
<path d="M0 0 C0.33 0.99 0.66 1.98 1 3 C-1.6933772 7.86879725 -4.8726224 11.98571537 -10.3125 13.75 C-11.1478125 13.87375 -11.1478125 13.87375 -12 14 C-11.43899078 10.20893773 -9.84675862 8.4970605 -7.125 5.875 C-6.42632812 5.19179687 -5.72765625 4.50859375 -5.0078125 3.8046875 C-3 2 -3 2 0 0 Z " fill="#F0F0F0" transform="translate(137,155)"/>
<path d="M0 0 C1.98 0.99 1.98 0.99 4 2 C4 2.66 4 3.32 4 4 C4.99 4 5.98 4 7 4 C7 3.34 7 2.68 7 2 C7.99 2.33 8.98 2.66 10 3 C9.8125 4.8125 9.8125 4.8125 9 7 C5.65188866 9.53370588 4.29875783 10 0 10 C0 6.7 0 3.4 0 0 Z " fill="#F4E5E6" transform="translate(91,80)"/>
<path d="M0 0 C1.03833984 0.2165625 1.03833984 0.2165625 2.09765625 0.4375 C13.72087156 2.642695 25.28985359 2.542984 37 1 C37 1.99 37 2.98 37 4 C32.5417231 4.05867342 28.08354727 4.09382135 23.625 4.125 C21.74748047 4.15013672 21.74748047 4.15013672 19.83203125 4.17578125 C12.62974 4.21348958 5.98586107 3.8081292 -1 2 C-0.67 1.34 -0.34 0.68 0 0 Z " fill="#413435" transform="translate(100,113)"/>
<path d="M0 0 C0.52464844 0.12117188 1.04929687 0.24234375 1.58984375 0.3671875 C8.09145222 1.77352544 14.5815531 2.5867616 21.19702148 3.21435547 C24.84915813 3.59467367 26.88842363 3.92561575 30 6 C19.52159055 6.41851635 9.42111372 6.0865168 0 1 C0 0.67 0 0.34 0 0 Z " fill="#3D3637" transform="translate(89,118)"/>
<path d="M0 0 C0.66 0.33 1.32 0.66 2 1 C2.375 3.75 2.375 3.75 2 7 C-2.0486993 10.65370425 -5.63602308 11.57088185 -11 12 C-8.11658466 7.78577758 -5.95696581 6.23924145 -1 5 C-0.67 3.35 -0.34 1.7 0 0 Z " fill="#F2C1C4" transform="translate(158,113)"/>
<path d="M0 0 C-1.7015625 0.61875 -1.7015625 0.61875 -3.4375 1.25 C-7.09543384 2.56685398 -7.09543384 2.56685398 -7.9375 5.1875 C-7.958125 5.785625 -7.97875 6.38375 -8 7 C-7.01 7.33 -6.02 7.66 -5 8 C-5.33 8.66 -5.66 9.32 -6 10 C-6.99 9.34 -7.98 8.68 -9 8 C-9 10.97 -9 13.94 -9 17 C-9.66 17.33 -10.32 17.66 -11 18 C-11.08097324 15.72975032 -11.13917704 13.45867925 -11.1875 11.1875 C-11.22230469 9.92292969 -11.25710937 8.65835938 -11.29296875 7.35546875 C-11 4 -11 4 -9.64453125 2.12890625 C-6.19325685 -0.24025836 -4.05720629 -1.3524021 0 0 Z " fill="#787777" transform="translate(100,72)"/>
<path d="M0 0 C0.66 0 1.32 0 2 0 C2.88277755 4.51815281 3.10589503 8.77512694 3.0625 13.375 C3.05347656 14.62023437 3.04445313 15.86546875 3.03515625 17.1484375 C3.02355469 18.08945313 3.01195313 19.03046875 3 20 C2.34 20 1.68 20 1 20 C-0.05619003 15.71702469 -0.11702092 11.57014354 -0.0625 7.1875 C-0.05798828 6.49462891 -0.05347656 5.80175781 -0.04882812 5.08789062 C-0.03713156 3.39188932 -0.01919924 1.69593297 0 0 Z " fill="#F2EBEC" transform="translate(95,91)"/>
<path d="M0 0 C0 0.99 0 1.98 0 3 C-1.32 2.34 -2.64 1.68 -4 1 C-4 1.66 -4 2.32 -4 3 C-3.401875 3.0825 -2.80375 3.165 -2.1875 3.25 C0.5966296 4.20455872 1.43311142 5.57132271 3 8 C2.67 8.66 2.34 9.32 2 10 C1.34 9.154375 0.68 8.30875 0 7.4375 C-2.6303496 4.81089794 -2.6303496 4.81089794 -5.11328125 4.890625 C-7.09211284 5.15774969 -9.04999475 5.57033783 -11 6 C-11.33 5.34 -11.66 4.68 -12 4 C-8.41084094 -0.78554541 -5.58334594 -0.37222306 0 0 Z " fill="#F1E0E2" transform="translate(81,46)"/>
<path d="M0 0 C0.66 0.99 1.32 1.98 2 3 C3.32 2.67 4.64 2.34 6 2 C6.3125 4.75 6.3125 4.75 6 8 C3.5 10.375 3.5 10.375 1 12 C0 9 0 9 1 6 C0.34 6 -0.32 6 -1 6 C-0.67 4.02 -0.34 2.04 0 0 Z " fill="#606060" transform="translate(167,140)"/>
<path d="M0 0 C0.99 0.33 1.98 0.66 3 1 C3.33 2.65 3.66 4.3 4 6 C8.455 5.505 8.455 5.505 13 5 C13.33 5.66 13.66 6.32 14 7 C8.675665 9.32086397 4.56157448 8.91457003 -1 8 C-0.835 7.236875 -0.67 6.47375 -0.5 5.6875 C0.09145396 2.96403764 0.09145396 2.96403764 0 0 Z " fill="#A89597" transform="translate(58,32)"/>
<path d="M0 0 C0.66 0 1.32 0 2 0 C0.92598892 2.91517292 0.22189824 4.77810176 -2 7 C-2.64767793 9.57061311 -2.64767793 9.57061311 -3 12 C1.50443885 10.6608425 2.7664425 9.04167548 5 5 C5.66 5 6.32 5 7 5 C5.4404735 8.82792868 3.16368164 11.36359864 0 14 C-2.3125 13.8125 -2.3125 13.8125 -4 13 C-4.29543354 7.97762985 -4.00679573 5.0892422 -1 1 C-0.67 0.67 -0.34 0.34 0 0 Z " fill="#383838" transform="translate(178,141)"/>
<path d="M0 0 C2.21151916 2.02025264 2.97348825 2.91288996 3.875 5.875 C4.02260131 9.56503279 3.15456896 11.06978621 1 14 C-0.55078125 12.85546875 -0.55078125 12.85546875 -2 11 C-1.85546875 8.30078125 -1.85546875 8.30078125 -1.1875 5.3125 C-0.97480469 4.31863281 -0.76210937 3.32476562 -0.54296875 2.30078125 C-0.36378906 1.54152344 -0.18460937 0.78226563 0 0 Z " fill="#EAB6BA" transform="translate(120,29)"/>
<path d="M0 0 C14.24880262 -0.57852281 14.24880262 -0.57852281 20 3 C21.17578125 5.109375 21.17578125 5.109375 22 7 C21.50113281 6.73445313 21.00226563 6.46890625 20.48828125 6.1953125 C13.84143916 2.92559125 7.3175445 1.85955701 0 1 C0 0.67 0 0.34 0 0 Z " fill="#F9F5F6" transform="translate(124,71)"/>
<path d="M0 0 C2.71232939 4.06849409 2.30699887 6.16476784 2 11 C1.34 11.66 0.68 12.32 0 13 C-3.125 12.625 -3.125 12.625 -6 12 C-6.33 12.99 -6.66 13.98 -7 15 C-7 13.02 -7 11.04 -7 9 C-6.01 9 -5.02 9 -4 9 C-3.67 9.66 -3.34 10.32 -3 11 C-2.34 11 -1.68 11 -1 11 C-0.67 7.37 -0.34 3.74 0 0 Z " fill="#4D3F3F" transform="translate(148,82)"/>
<path d="M0 0 C0.66 0 1.32 0 2 0 C2.33 1.32 2.66 2.64 3 4 C6.465 3.505 6.465 3.505 10 3 C10 4.65 10 6.3 10 8 C10.99 8.33 11.98 8.66 13 9 C11.68 9 10.36 9 9 9 C9 7.35 9 5.7 9 4 C4.05 5.485 4.05 5.485 -1 7 C-1.04254356 5.00045254 -1.04080783 2.99958364 -1 1 C-0.67 0.67 -0.34 0.34 0 0 Z " fill="#766D6E" transform="translate(61,69)"/>
<path d="M0 0 C1.98 0 3.96 0 6 0 C5.8125 2.3125 5.8125 2.3125 5 5 C2.4375 6.8125 2.4375 6.8125 0 8 C0 5.36 0 2.72 0 0 Z " fill="#D6B4B6" transform="translate(116,48)"/>
<path d="M0 0 C5.82271337 -0.59720137 9.9209404 1.471757 15 4 C15 4.33 15 4.66 15 5 C8.07 4.505 8.07 4.505 1 4 C1.99 3.34 2.98 2.68 4 2 C2.68 1.34 1.36 0.68 0 0 Z " fill="#EBD5D7" transform="translate(98,117)"/>
<path d="M0 0 C0.9075 0.12375 1.815 0.2475 2.75 0.375 C2.42 1.035 2.09 1.695 1.75 2.375 C0.43 2.375 -0.89 2.375 -2.25 2.375 C-1.59 3.035 -0.93 3.695 -0.25 4.375 C-1.24 5.035 -2.23 5.695 -3.25 6.375 C-3.97382467 8.43425139 -3.97382467 8.43425139 -4.25 10.375 C-4.91 10.375 -5.57 10.375 -6.25 10.375 C-7 8.75 -7 8.75 -7.25 6.375 C-4.43089272 0.51125685 -4.43089272 0.51125685 0 0 Z " fill="#C8BBBC" transform="translate(153.25,34.625)"/>
<path d="M0 0 C8.91 1.485 8.91 1.485 18 3 C18 3.33 18 3.66 18 4 C12.72 4 7.44 4 2 4 C1.34 2.68 0.68 1.36 0 0 Z " fill="#EFBEC1" transform="translate(94,121)"/>
<path d="M0 0 C0.33 0 0.66 0 1 0 C1 3.63 1 7.26 1 11 C1.99 11.33 2.98 11.66 4 12 C1.24921116 12.91692961 -0.35948913 13.10886083 -3.1875 13.0625 C-5.0746875 13.0315625 -5.0746875 13.0315625 -7 13 C-7 12.67 -7 12.34 -7 12 C-3.535 11.505 -3.535 11.505 0 11 C-0.33 10.34 -0.66 9.68 -1 9 C-1.99 9 -2.98 9 -4 9 C-3.525625 8.62875 -3.05125 8.2575 -2.5625 7.875 C-0.47794198 5.37353038 -0.35378509 3.18406582 0 0 Z " fill="#372D2D" transform="translate(122,65)"/>
<path d="M0 0 C-4.30055249 4.76132597 -4.30055249 4.76132597 -8 5 C-8.99 4.34 -9.98 3.68 -11 3 C-10 1 -10 1 -8.22265625 0.33203125 C-7.15337891 0.07486328 -7.15337891 0.07486328 -6.0625 -0.1875 C-5.35222656 -0.36667969 -4.64195312 -0.54585938 -3.91015625 -0.73046875 C-2 -1 -2 -1 0 0 Z " fill="#917475" transform="translate(145,112)"/>
<path d="M0 0 C0.33 0.99 0.66 1.98 1 3 C1.66 3 2.32 3 3 3 C2.67 4.32 2.34 5.64 2 7 C0.35 7 -1.3 7 -3 7 C-3 5.02 -3 3.04 -3 1 C-2.01 0.67 -1.02 0.34 0 0 Z " fill="#756162" transform="translate(165,89)"/>
<path d="M0 0 C0.33 0 0.66 0 1 0 C1 1.98 1 3.96 1 6 C2.98 6 4.96 6 7 6 C7 6.33 7 6.66 7 7 C6.05125 7.103125 5.1025 7.20625 4.125 7.3125 C0.70892499 7.68539295 0.70892499 7.68539295 -1 11 C-1.99 10.67 -2.98 10.34 -4 10 C-3.525625 9.46375 -3.05125 8.9275 -2.5625 8.375 C-0.71813924 5.57157164 -0.37543153 3.30379742 0 0 Z " fill="#6C6666" transform="translate(72,39)"/>
<path d="M0 0 C0.33 0 0.66 0 1 0 C1.33 1.65 1.66 3.3 2 5 C3.32 4.67 4.64 4.34 6 4 C6 4.99 6 5.98 6 7 C3.36 7.66 0.72 8.32 -2 9 C-1.34 6.03 -0.68 3.06 0 0 Z " fill="#A1888A" transform="translate(116,69)"/>
<path d="M0 0 C1.65 0.33 3.3 0.66 5 1 C4.67 2.32 4.34 3.64 4 5 C1.03 4.505 1.03 4.505 -2 4 C-1.34 2.68 -0.68 1.36 0 0 Z " fill="#CDC1C2" transform="translate(154,60)"/>
<path d="M0 0 C-1.6875 1.5625 -1.6875 1.5625 -4 3 C-6.75 2.6875 -6.75 2.6875 -9 2 C-9 1.34 -9 0.68 -9 0 C-5.62182575 -0.84454356 -3.32534757 -1.10844919 0 0 Z " fill="#C2B9BA" transform="translate(62,77)"/>
<path d="M0 0 C0 0.33 0 0.66 0 1 C-2.97 1 -5.94 1 -9 1 C-9 1.66 -9 2.32 -9 3 C-8.34 3 -7.68 3 -7 3 C-7 3.99 -7 4.98 -7 6 C-7.99 6 -8.98 6 -10 6 C-10 4.02 -10 2.04 -10 0 C-6.7169902 -1.6415049 -3.57454967 -0.51888624 0 0 Z " fill="#CEB6B8" transform="translate(133,70)"/>
<path d="M0 0 C3.79379058 1.49041773 5.68343758 3.69062512 8 7 C8 7.66 8 8.32 8 9 C6.68 9 5.36 9 4 9 C3.71125 8.071875 3.4225 7.14375 3.125 6.1875 C2.1125 2.90208333 2.1125 2.90208333 0 0 Z " fill="#A9A2A4" transform="translate(88,46)"/>
<path d="M0 0 C-0.33 0.99 -0.66 1.98 -1 3 C-1.33 3 -1.66 3 -2 3 C-2.33 4.98 -2.66 6.96 -3 9 C-2.01 9.33 -1.02 9.66 0 10 C-1.32 10 -2.64 10 -4 10 C-4 8.02 -4 6.04 -4 4 C-4.66 3.67 -5.32 3.34 -6 3 C-2.25 0 -2.25 0 0 0 Z " fill="#202020" transform="translate(150,145)"/>
<path d="M0 0 C0 1.65 0 3.3 0 5 C-1.98 5.99 -1.98 5.99 -4 7 C-4.1875 4.625 -4.1875 4.625 -4 2 C-1 0 -1 0 0 0 Z " fill="#F4C9CD" transform="translate(121,67)"/>
<path d="M0 0 C-0.75 2.4375 -0.75 2.4375 -2 5 C-4.125 5.8125 -4.125 5.8125 -6 6 C-6 4.68 -6 3.36 -6 2 C-2.25 0 -2.25 0 0 0 Z " fill="#E6BBBE" transform="translate(112,92)"/>
<path d="M0 0 C0 1.65 0 3.3 0 5 C-1.98 5.99 -1.98 5.99 -4 7 C-4.1875 4.625 -4.1875 4.625 -4 2 C-1 0 -1 0 0 0 Z " fill="#F2C8CB" transform="translate(121,60)"/>
<path d="M0 0 C0.33 0.99 0.66 1.98 1 3 C-0.65 4.32 -2.3 5.64 -4 7 C-4 5.35 -4 3.7 -4 2 C-2.68 1.34 -1.36 0.68 0 0 Z " fill="#F1CFD2" transform="translate(120,55)"/>
<path d="M0 0 C0 0.99 0 1.98 0 3 C-6.625 3.25 -6.625 3.25 -10 1 C-6.59437148 0.22157062 -3.49234244 -0.09978121 0 0 Z " fill="#604E4F" transform="translate(137,114)"/>
<path d="M0 0 C0 0.33 0 0.66 0 1 C-6.28571429 3.42857143 -6.28571429 3.42857143 -10 2 C-6.27511755 -0.66063032 -4.42132508 -1.38955931 0 0 Z " fill="#4A4949" transform="translate(72,38)"/>
<path d="M0 0 C2.31 0 4.62 0 7 0 C6.34 1.65 5.68 3.3 5 5 C4.34 5 3.68 5 3 5 C3 4.34 3 3.68 3 3 C2.01 2.67 1.02 2.34 0 2 C0 1.34 0 0.68 0 0 Z " fill="#514D4D" transform="translate(90,89)"/>
</svg>
